<svg width="800" height="600" xmlns="http://www.w3.org/2000/svg">

 <g>
  <title>Layer 1</title>
  <text transform="matrix(1.50854, 0, 0, 2.09601, -227.925, -223.311)" font-style="normal" font-weight="normal" xml:space="preserve" text-anchor="start" font-family="'Calistoga'" font-size="24" id="svg_1" y="233.42093" x="361.10812" stroke-width="0" stroke="#000" fill="#E6C36A">WuRather</text>
  <path d="m383,280c1,0 2,0 3,0c1,0 3,0 4,0c1,0 2,0 3,0c2,0 3,0 4,0c2,0 2.85272,1.1731 4,2c1.814,1.30746 2.83505,3.00681 3,5c0.50171,6.06204 2,8 2,10c0,1 0,2 0,3c0,1 0,3 0,4c0,2 -2,5 -4,7c-2,2 -4,5 -6,6c-2,1 -4.85272,3.1731 -6,4c-1.814,1.30746 -3.41885,1.41885 -5,3c-1.58115,1.58115 -1.5405,2.0535 -2,4c-0.51373,2.17624 -1,3 -1,4c0,3 2,3 4,3c1,0 4,0 7,0c2,0 3,0 5,0l1,0l2,0l1,0" id="svg_2" stroke-width="0" stroke="#000" fill="none"/>
  <text transform="matrix(2.72316, 0, 0, 1.96742, -851.239, -251.65)" xml:space="preserve" text-anchor="start" font-family="'Calistoga'" font-size="24" id="svg_3" y="262.14902" x="490.69501" stroke-width="0" stroke="#000" fill="#000000">?</text>
  <text font-style="normal" font-weight="normal" xml:space="preserve" text-anchor="start" font-family="'Playball'" font-size="20" id="svg_4" y="294" x="308" stroke-width="0" stroke="#000" fill="#000000">Would You Rather GAME</text>
 </g>
</svg>